<?xml version="1.0" encoding="UTF-8" standalone="no"?>
<svg
   xmlns:dc="http://purl.org/dc/elements/1.1/"
   xmlns:cc="http://creativecommons.org/ns#"
   xmlns:rdf="http://www.w3.org/1999/02/22-rdf-syntax-ns#"
   xmlns:svg="http://www.w3.org/2000/svg"
   xmlns="http://www.w3.org/2000/svg"
   height="63.599998"
   width="259.60001"
   xml:space="preserve"
   viewBox="0 0 259.60001 63.599998"
   y="0px"
   x="0px"
   id="Layer_1"
   version="1.1"><metadata
   id="metadata47"><rdf:RDF><cc:Work
       rdf:about=""><dc:format>image/svg+xml</dc:format><dc:type
         rdf:resource="http://purl.org/dc/dcmitype/StillImage" /><dc:title>at_logo_web</dc:title></cc:Work></rdf:RDF></metadata><defs
   id="defs45" />
<style
   id="style2"
   type="text/css">
	.st0{fill:#000081;}
	.st1{fill:#FFFFFF;}
	.st2{fill:#CCCCCC;}
	.st3{fill:#0000FF;}
</style>
<title
   id="title4">at_logo_web</title>
<g
   transform="translate(-20.9,-20.2)"
   id="g40">
	<g
   id="g22">
		<path
   style="fill:#000081"
   id="path6"
   d="m 102.9,45.5 h 6.5 v 2.2 h 0.1 c 1.5,-1.7 3.5,-2.7 6,-2.7 4.1,0 7.6,3 7.6,8.4 v 13.9 h -6.5 V 55 c 0,-2.9 -1.7,-4.3 -3.6,-4.3 -2.1,0 -3.6,1.5 -3.6,4.4 v 12.3 h -6.5 z"
   class="st0" />
		<path
   style="fill:#000081"
   id="path8"
   d="m 147.2,67.4 h -6.5 v -2.2 h -0.1 c -1.5,1.7 -3.5,2.7 -6,2.7 -4.1,0 -7.6,-3 -7.6,-8.4 v -14 h 6.4 v 12.4 c 0,2.9 1.7,4.3 3.6,4.3 2.1,0 3.6,-1.5 3.6,-4.4 V 45.5 h 6.5 z"
   class="st0" />
		<path
   style="fill:#000081"
   id="path10"
   d="m 158.6,65.1 v 0 l -0.1,2.3 H 152 V 35.2 h 6.5 v 12.6 h 0.1 c 1.5,-1.7 3.5,-2.7 6.4,-2.7 5,0 9.8,3.6 9.8,11.4 0,7.7 -4.9,11.4 -10,11.4 -2.9,-0.1 -4.8,-1.2 -6.2,-2.8 z m 9.6,-8.7 c 0,-3.6 -2.4,-5.8 -5.1,-5.8 -2.6,0 -5,2.1 -5,5.8 0,3.6 2.4,5.7 5,5.7 2.9,0 5.1,-2 5.1,-5.7 z"
   class="st0" />
		<path
   style="fill:#000081"
   id="path12"
   d="m 181.4,42.7 c -2.1,0 -3.7,-1.7 -3.7,-3.8 0,-2.1 1.7,-3.8 3.7,-3.8 2.1,0 3.8,1.7 3.8,3.8 -0.1,2.1 -1.7,3.8 -3.8,3.8 z m -3.3,2.8 h 6.5 v 21.9 h -6.5 z"
   class="st0" />
		<path
   style="fill:#000081"
   id="path14"
   d="m 203,40.7 c -0.7,-0.3 -1.6,-0.4 -2.2,-0.4 -1.7,0 -2.7,0.9 -2.7,3.1 v 2.1 H 212 v 21.9 h -6.4 V 50.9 h -7.4 v 16.5 h -6.4 V 50.9 H 189 v -5.4 h 2.7 v -2.6 c 0,-4.5 2.7,-8.1 7.6,-8.1 1.8,0 3.3,0.3 4.4,0.6 z m 5.8,1.9 c -2.1,0 -3.7,-1.7 -3.7,-3.7 0,-2.1 1.7,-3.7 3.7,-3.7 2.1,0 3.7,1.7 3.7,3.7 0,2.1 -1.6,3.7 -3.7,3.7 z"
   class="st0" />
		<path
   style="fill:#000081"
   id="path16"
   d="m 236.4,63.8 c -2.1,2.3 -4.7,4 -9,4 -6.5,0 -11.3,-4.6 -11.3,-11.4 0,-6.7 4.7,-11.4 11.3,-11.4 4.1,0 6.7,1.5 8.7,3.7 l -4.2,4 c -1.3,-1.4 -2.6,-2.1 -4.4,-2.1 -2.9,0 -5,2.2 -5,5.8 0,3.7 2.1,5.7 5.1,5.7 1.9,0 3.1,-0.7 4.5,-2.2 z"
   class="st0" />
		<path
   style="fill:#000081"
   id="path18"
   d="m 259.3,67.4 h -6.5 v -2.2 h -0.1 c -1.5,1.7 -3.5,2.7 -6,2.7 -4.1,0 -7.6,-3 -7.6,-8.4 v -14 h 6.4 v 12.4 c 0,2.9 1.7,4.3 3.6,4.3 2.1,0 3.6,-1.5 3.6,-4.4 V 45.5 h 6.5 v 21.9 z"
   class="st0" />
		<path
   style="fill:#000081"
   id="path20"
   d="m 262.9,65.3 3.5,-4.3 c 1.8,1.4 3.4,1.9 5.1,1.9 1.4,0 2.5,-0.4 2.5,-1.4 0,-1.3 -1.7,-1.8 -4,-2.6 -2.6,-1 -6.2,-2.4 -6.2,-6.8 0,-4.4 3.7,-7 8.2,-7 3.5,0 6,0.8 8,2.4 l -3.3,4 c -1.3,-1 -2.9,-1.5 -4.4,-1.5 -1.4,0 -2,0.8 -2,1.7 0,1.8 3.1,2.5 4.5,3 3.1,1.1 5.7,3 5.7,6.2 0,4.9 -4.5,6.9 -9.1,6.9 -3.1,0 -5.8,-0.7 -8.5,-2.5 z"
   class="st0" />
	</g>
	<g
   id="g38">
		<path
   style="fill:#000081"
   id="path24"
   d="m 44.4,73.9 c 0,5.4 -4.4,9.9 -9.9,9.9 H 26.1 V 20.2 h 18.3 z"
   class="st0" />
		<path
   style="fill:#000081"
   id="path26"
   d="m 64.4,30.1 c 0,-5.4 4.4,-9.9 9.9,-9.9 h 8.4 V 83.8 H 64.4 Z"
   class="st0" />
		<g
   id="g32">
			<path
   style="fill:#ffffff"
   id="path28"
   d="m 77,46 c 0,-5.1 -4.1,-9.2 -9.2,-9.2 -1.3,0 -2.6,0.3 -3.7,0.8 -3.2,-4.9 -8.8,-8.2 -15.2,-8.2 -9.5,0 -17.3,7.3 -18.1,16.6 -5.5,0.5 -9.9,5.1 -9.9,10.8 0,5.6 4.3,10.3 9.8,10.8 h 5 33.3 6.9 c 0.3,0 0.6,0 0.8,0 6,0 10.8,-4.8 10.8,-10.8 C 87.7,50.9 83,46.1 77,46 Z"
   class="st1" />
			<path
   style="fill:#cccccc"
   id="path30"
   d="m 49,31.4 c 5.5,0 10.5,2.7 13.5,7.3 l 0.9,1.4 1.5,-0.7 c 0.9,-0.4 1.9,-0.6 2.9,-0.6 4,0 7.2,3.2 7.2,7.2 v 2 h 2 c 2.3,0 4.5,1 6.2,2.6 1.6,1.7 2.5,3.9 2.5,6.2 0,4.8 -4,8.8 -8.8,8.8 -0.1,0 -0.2,0 -0.3,0 -0.1,0 -0.2,0 -0.2,0 -0.1,0 -0.1,0 -0.1,0 h -0.1 -0.1 -7 -33.3 -4.9 c -2.1,-0.2 -4.1,-1.2 -5.6,-2.8 -1.5,-1.6 -2.3,-3.7 -2.3,-6 0,-2.2 0.8,-4.3 2.3,-6 1.5,-1.6 3.5,-2.6 5.7,-2.8 l 1.7,-0.1 0.1,-1.7 c 0.3,-4 2.1,-7.8 5.1,-10.5 3.1,-2.8 7,-4.3 11.1,-4.3 m 0,-2 c -9.5,0 -17.3,7.3 -18.1,16.6 -5.5,0.5 -9.9,5.1 -9.9,10.8 0,5.6 4.3,10.3 9.8,10.8 h 5 33.3 6.9 c 0.1,0 0.2,0 0.3,0 0.2,0 0.4,0 0.6,0 6,0 10.8,-4.8 10.8,-10.8 C 87.7,50.9 83,46.1 77,46 c 0,-5.1 -4.1,-9.2 -9.2,-9.2 -1.3,0 -2.6,0.3 -3.7,0.8 C 60.9,32.7 55.4,29.4 49,29.4 Z"
   class="st2" />
		</g>
		<g
   id="g36">
			<path
   style="fill:#0000ff"
   id="path34"
   d="M 26.1,20.2 H 45 L 82.6,83.8 H 64.4 Z"
   class="st3" />
		</g>
	</g>
</g>
</svg>